<svg aria-hidden="true" style="position: absolute; width: 0; height: 0; overflow: hidden;" version="1.1" xmlns="http://www.w3.org/2000/svg" xmlns:xlink="http://www.w3.org/1999/xlink">
<defs>
<symbol id="icon-youtoube" viewBox="0 0 37 32">
<path d="M35.632 6.219c0.812 3.168 0.812 9.781 0.812 9.781s0 6.613-0.812 9.781c-0.452 1.751-1.773 3.129-3.445 3.595-3.038 0.846-13.52 0.846-13.52 0.846s-10.476 0-13.52-0.846c-1.68-0.473-2.999-1.849-3.445-3.595-0.812-3.168-0.812-9.781-0.812-9.781s0-6.613 0.812-9.781c0.452-1.751 1.772-3.129 3.445-3.595 3.044-0.846 13.52-0.846 13.52-0.846s10.482 0 13.52 0.846c1.68 0.473 2.999 1.849 3.445 3.595zM15.111 22.222l10.667-6.222-10.667-6.222v12.444z"></path>
</symbol>
<symbol id="icon-instagram" viewBox="0 0 32 32">
<path d="M16 2.667c3.623 0 4.075 0.013 5.496 0.080 1.42 0.067 2.387 0.289 3.237 0.62 0.88 0.339 1.621 0.797 2.363 1.537 0.678 0.667 1.203 1.473 1.537 2.363 0.329 0.849 0.553 1.817 0.62 3.237 0.063 1.421 0.080 1.873 0.080 5.496s-0.013 4.075-0.080 5.496c-0.067 1.42-0.291 2.387-0.62 3.237-0.334 0.89-0.858 1.697-1.537 2.363-0.667 0.678-1.473 1.202-2.363 1.537-0.849 0.329-1.817 0.553-3.237 0.62-1.421 0.063-1.873 0.080-5.496 0.080s-4.075-0.013-5.496-0.080c-1.42-0.067-2.387-0.291-3.237-0.62-0.89-0.334-1.697-0.859-2.363-1.537-0.678-0.666-1.203-1.473-1.537-2.363-0.331-0.849-0.553-1.817-0.62-3.237-0.063-1.421-0.080-1.873-0.080-5.496s0.013-4.075 0.080-5.496c0.067-1.421 0.289-2.387 0.62-3.237 0.334-0.89 0.858-1.697 1.537-2.363 0.666-0.678 1.473-1.203 2.363-1.537 0.851-0.331 1.816-0.553 3.237-0.62 1.421-0.063 1.873-0.080 5.496-0.080zM16 9.333c-1.768 0-3.464 0.702-4.714 1.953s-1.953 2.946-1.953 4.714c0 1.768 0.702 3.464 1.953 4.714s2.946 1.953 4.714 1.953 3.464-0.702 4.714-1.953c1.25-1.25 1.953-2.946 1.953-4.714s-0.702-3.464-1.953-4.714c-1.25-1.25-2.946-1.953-4.714-1.953zM24.667 9c0-0.442-0.176-0.866-0.488-1.179s-0.736-0.488-1.178-0.488-0.866 0.176-1.179 0.488c-0.313 0.313-0.488 0.736-0.488 1.179s0.176 0.866 0.488 1.178c0.313 0.313 0.737 0.488 1.179 0.488s0.866-0.176 1.178-0.488c0.313-0.313 0.488-0.736 0.488-1.178zM16 12c1.061 0 2.078 0.421 2.828 1.172s1.172 1.768 1.172 2.828c0 1.061-0.421 2.078-1.172 2.828s-1.768 1.172-2.828 1.172c-1.061 0-2.078-0.421-2.828-1.172s-1.172-1.768-1.172-2.828c0-1.061 0.421-2.078 1.172-2.828s1.768-1.172 2.828-1.172z"></path>
</symbol>
<symbol id="icon-twitter" viewBox="0 0 37 32">
<path d="M36.733 4.722c-1.357 0.6-2.797 0.995-4.27 1.17 1.553-0.929 2.716-2.391 3.271-4.114-1.458 0.868-3.056 1.476-4.722 1.804-1.119-1.197-2.602-1.991-4.219-2.259s-3.276 0.007-4.721 0.78-2.594 2.002-3.268 3.496c-0.674 1.494-0.836 3.168-0.461 4.763-2.956-0.148-5.848-0.916-8.488-2.255s-4.969-3.217-6.836-5.514c-0.661 1.135-1.008 2.425-1.006 3.739 0 2.578 1.312 4.855 3.307 6.188-1.18-0.037-2.335-0.356-3.367-0.93v0.092c0 1.717 0.594 3.381 1.682 4.709s2.6 2.241 4.283 2.581c-1.096 0.297-2.245 0.341-3.36 0.128 0.474 1.478 1.399 2.77 2.645 3.696s2.749 1.439 4.301 1.468c-1.542 1.211-3.308 2.107-5.197 2.635s-3.863 0.679-5.81 0.444c3.399 2.186 7.355 3.346 11.396 3.342 13.676 0 21.156-11.33 21.156-21.155 0-0.32-0.009-0.644-0.023-0.96 1.456-1.052 2.712-2.356 3.71-3.849l-0.002-0.002z"></path>
</symbol>
<symbol id="icon-facebook" viewBox="0 0 32 32">
<path d="M18.667 18h3.333l1.333-5.333h-4.667v-2.667c0-1.373 0-2.667 2.667-2.667h2v-4.48c-0.435-0.057-2.076-0.187-3.809-0.187-3.62 0-6.191 2.209-6.191 6.267v3.733h-4v5.333h4v11.333h5.333v-11.333z"></path>
</symbol>
<symbol id="icon-clock" viewBox="0 0 32 32">
<path d="M16 31.238c-8.416 0-15.238-6.822-15.238-15.238s6.822-15.238 15.238-15.238 15.238 6.822 15.238 15.238c0 8.416-6.822 15.238-15.238 15.238zM16 28.19c3.233 0 6.334-1.285 8.62-3.57s3.57-5.387 3.57-8.62-1.284-6.334-3.57-8.62c-2.286-2.286-5.387-3.571-8.62-3.571s-6.334 1.284-8.62 3.571c-2.286 2.286-3.571 5.387-3.571 8.62s1.284 6.334 3.571 8.62c2.286 2.286 5.387 3.57 8.62 3.57zM17.524 16h6.095v3.048h-9.143v-10.667h3.048v7.619z"></path>
</symbol>
<symbol id="icon-sun" viewBox="0 0 32 32">
<path d="M8.111 17.334c-0.193-1.147-0.133-2.322 0.175-3.443s0.856-2.162 1.607-3.050c0.751-0.888 1.686-1.601 2.741-2.090s2.204-0.743 3.366-0.743c1.163 0 2.312 0.253 3.366 0.743s1.99 1.203 2.741 2.090 1.299 1.929 1.607 3.050c0.308 1.121 0.367 2.296 0.175 3.443h-15.779zM2.667 20h13.333v2.667h-13.333v-2.667zM18.667 20h10.667v2.667h-10.667v-2.667zM21.333 25.333h5.333v2.667h-5.333v-2.667zM5.333 25.333h13.333v2.667h-13.333v-2.667zM14.667 1.333h2.667v4h-2.667v-4zM4.687 6.572l1.885-1.885 2.828 2.828-1.885 1.885-2.828-2.828zM25.427 4.687l1.885 1.885-2.828 2.828-1.885-1.885 2.828-2.828zM30.667 14.667v2.667h-4v-2.667h4zM5.333 14.667v2.667h-4v-2.667h4z"></path>
</symbol>
 <symbol id="icon-search" viewBox="0 0 32 32">
<path d="M23.484 20.688c1.937-2.643 2.804-5.919 2.429-9.174s-1.966-6.248-4.453-8.38c-2.487-2.132-5.688-3.247-8.962-3.121s-6.379 1.484-8.695 3.801c-2.316 2.317-3.671 5.424-3.795 8.698s0.993 6.474 3.127 8.96c2.134 2.486 5.128 4.074 8.383 4.447s6.531-0.497 9.172-2.435h-0.002c0.060 0.080 0.124 0.156 0.196 0.23l7.7 7.7c0.375 0.375 0.884 0.586 1.414 0.586s1.040-0.21 1.415-0.585c0.375-0.375 0.586-0.884 0.586-1.414s-0.21-1.039-0.585-1.415l-7.7-7.7c-0.072-0.072-0.148-0.137-0.23-0.198zM24 13c0 1.445-0.284 2.875-0.837 4.21s-1.363 2.547-2.384 3.569-2.234 1.832-3.569 2.384c-1.335 0.553-2.765 0.837-4.209 0.837s-2.875-0.284-4.21-0.837c-1.335-0.553-2.547-1.363-3.569-2.384s-1.832-2.234-2.385-3.569c-0.553-1.335-0.837-2.765-0.837-4.21 0-2.917 1.159-5.715 3.222-7.778s4.861-3.222 7.778-3.222c2.917 0 5.715 1.159 7.778 3.222s3.222 4.861 3.222 7.778z"></path>
</symbol>
<symbol id="icon-Right-Button" viewBox="0 0 32 32">
<path d="M20 16l-5.657 5.657-1.885-1.887 3.772-3.771-3.772-3.771 1.885-1.887 5.657 5.657z"></path>
</symbol>
<symbol id="icon-Left-Button" viewBox="0 0 32 32">
<path d="M12 16l5.657-5.657 1.885 1.887-3.772 3.771 3.772 3.771-1.885 1.887-5.657-5.657z"></path>
</symbol> 
<symbol id="icon-Dribble" viewBox="0 0 32 32">
<path d="M26.652 15.429c-0.109-2.099-0.839-4.118-2.097-5.801-0.383 0.413-0.793 0.8-1.227 1.16-1.332 1.106-2.821 2.010-4.417 2.68 0.223 0.467 0.427 0.919 0.607 1.345v0.004c0.051 0.119 0.1 0.239 0.147 0.36 2.019-0.227 4.147-0.144 6.209 0.135 0.275 0.037 0.533 0.077 0.779 0.117zM14.139 5.496c1.299 1.831 2.498 3.732 3.589 5.693 1.631-0.643 2.979-1.453 4.064-2.356 0.377-0.31 0.731-0.647 1.061-1.007-1.919-1.614-4.346-2.497-6.853-2.493-0.624-0-1.247 0.054-1.861 0.161v0.001zM5.671 13.329c0.908-0.023 1.816-0.078 2.72-0.164 2.186-0.196 4.354-0.562 6.483-1.096-1.113-1.933-2.314-3.814-3.6-5.636-1.374 0.681-2.585 1.649-3.552 2.838s-1.666 2.574-2.051 4.058zM7.711 22.713c0.517-0.756 1.197-1.607 2.1-2.532 1.939-1.987 4.227-3.533 6.875-4.387l0.083-0.024c-0.22-0.485-0.427-0.919-0.635-1.327-2.448 0.713-5.027 1.159-7.596 1.389-1.253 0.113-2.377 0.163-3.204 0.171-0.002 2.443 0.838 4.813 2.379 6.709h-0.001zM20.007 25.887c-0.514-2.593-1.242-5.139-2.176-7.612-2.669 0.969-4.796 2.387-6.44 4.077-0.663 0.67-1.252 1.41-1.756 2.207 1.838 1.372 4.072 2.111 6.365 2.108 1.373 0.002 2.734-0.262 4.007-0.777v-0.003zM22.504 24.453c2.082-1.6 3.5-3.912 3.983-6.493-0.453-0.113-1.028-0.227-1.66-0.315-1.405-0.202-2.831-0.217-4.24-0.044 0.793 2.238 1.434 4.528 1.917 6.853v-0.001zM16 29.333c-7.364 0-13.333-5.969-13.333-13.333s5.969-13.333 13.333-13.333c7.364 0 13.333 5.969 13.333 13.333s-5.969 13.333-13.333 13.333z"></path>
</symbol>
<symbol id="icon-Behance" viewBox="0 0 32 32">
<path d="M9.924 7.133c0.852 0 1.64 0.067 2.36 0.264 0.653 0.12 1.277 0.366 1.836 0.725 0.525 0.329 0.919 0.792 1.18 1.385 0.263 0.593 0.393 1.32 0.393 2.111 0 0.924-0.196 1.715-0.655 2.308-0.393 0.595-1.049 1.121-1.836 1.517 1.115 0.331 1.967 0.924 2.491 1.715 0.525 0.792 0.853 1.781 0.853 2.903 0 0.924-0.197 1.715-0.525 2.375s-0.852 1.253-1.443 1.649c-0.642 0.424-1.351 0.736-2.097 0.923-0.787 0.199-1.573 0.331-2.36 0.331h-8.788v-18.205h8.591zM9.399 14.52c0.721 0 1.312-0.197 1.771-0.527s0.656-0.924 0.656-1.649c0-0.396-0.067-0.792-0.197-1.055-0.131-0.264-0.328-0.463-0.589-0.66-0.263-0.132-0.525-0.264-0.853-0.329-0.328-0.067-0.655-0.067-1.049-0.067h-3.803v4.288l4.065-0.001zM9.596 22.304c0.393 0 0.787-0.067 1.115-0.132 0.331-0.063 0.644-0.198 0.917-0.396 0.267-0.193 0.491-0.44 0.656-0.725 0.131-0.329 0.263-0.725 0.263-1.187 0-0.924-0.263-1.584-0.787-2.045-0.525-0.396-1.247-0.593-2.099-0.593h-4.328v5.080l4.263-0.001zM22.252 22.237c0.524 0.528 1.311 0.792 2.36 0.792 0.721 0 1.377-0.197 1.901-0.527 0.525-0.396 0.853-0.792 0.984-1.188h3.213c-0.525 1.583-1.312 2.704-2.36 3.429-1.051 0.66-2.296 1.056-3.804 1.056-0.965 0.003-1.922-0.176-2.82-0.528-0.808-0.303-1.529-0.802-2.099-1.451-0.609-0.607-1.059-1.355-1.311-2.177-0.328-0.857-0.46-1.78-0.46-2.836 0-0.989 0.132-1.912 0.46-2.771 0.315-0.827 0.782-1.587 1.376-2.243 0.591-0.593 1.312-1.12 2.099-1.451 0.876-0.352 1.811-0.531 2.755-0.528 1.115 0 2.099 0.199 2.951 0.66 0.853 0.461 1.508 0.989 2.033 1.781 0.536 0.761 0.935 1.609 1.18 2.507 0.131 0.923 0.196 1.847 0.131 2.901h-9.508c0 1.056 0.393 2.045 0.919 2.573v-0.001zM26.383 15.312c-0.459-0.461-1.18-0.725-2.033-0.725-0.589 0-1.049 0.132-1.443 0.329-0.393 0.199-0.655 0.463-0.917 0.727-0.241 0.255-0.401 0.576-0.459 0.923-0.067 0.331-0.132 0.593-0.132 0.857h5.901c-0.131-0.989-0.459-1.648-0.917-2.111zM20.612 8.387h7.344v1.781h-7.343v-1.781h-0.001z"></path>
</symbol>
<symbol id="icon-vector-right" viewBox="0 0 19 32">
<path d="M19.2 16l-13.578 13.578-4.525-4.528 9.053-9.050-9.053-9.050 4.525-4.528 13.578 13.578z"></path>
</symbol>
</defs>
</svg>
