<svg aria-hidden="true" style="position: absolute; width: 0; height: 0; overflow: hidden;" version="1.1" xmlns="http://www.w3.org/2000/svg" xmlns:xlink="http://www.w3.org/1999/xlink">
<defs>
<symbol id="icon-youtoube" viewBox="0 0 37 32">
<path d="M35.632 6.219c0.812 3.168 0.812 9.781 0.812 9.781s0 6.613-0.812 9.781c-0.452 1.751-1.773 3.129-3.445 3.595-3.038 0.846-13.52 0.846-13.52 0.846s-10.476 0-13.52-0.846c-1.68-0.473-2.999-1.849-3.445-3.595-0.812-3.168-0.812-9.781-0.812-9.781s0-6.613 0.812-9.781c0.452-1.751 1.772-3.129 3.445-3.595 3.044-0.846 13.52-0.846 13.52-0.846s10.482 0 13.52 0.846c1.68 0.473 2.999 1.849 3.445 3.595zM15.111 22.222l10.667-6.222-10.667-6.222v12.444z"></path>
</symbol>
<symbol id="icon-instagram" viewBox="0 0 32 32">
<path d="M16 2.667c3.623 0 4.075 0.013 5.496 0.080 1.42 0.067 2.387 0.289 3.237 0.62 0.88 0.339 1.621 0.797 2.363 1.537 0.678 0.667 1.203 1.473 1.537 2.363 0.329 0.849 0.553 1.817 0.62 3.237 0.063 1.421 0.080 1.873 0.080 5.496s-0.013 4.075-0.080 5.496c-0.067 1.42-0.291 2.387-0.62 3.237-0.334 0.89-0.858 1.697-1.537 2.363-0.667 0.678-1.473 1.202-2.363 1.537-0.849 0.329-1.817 0.553-3.237 0.62-1.421 0.063-1.873 0.080-5.496 0.080s-4.075-0.013-5.496-0.080c-1.42-0.067-2.387-0.291-3.237-0.62-0.89-0.334-1.697-0.859-2.363-1.537-0.678-0.666-1.203-1.473-1.537-2.363-0.331-0.849-0.553-1.817-0.62-3.237-0.063-1.421-0.080-1.873-0.080-5.496s0.013-4.075 0.080-5.496c0.067-1.421 0.289-2.387 0.62-3.237 0.334-0.89 0.858-1.697 1.537-2.363 0.666-0.678 1.473-1.203 2.363-1.537 0.851-0.331 1.816-0.553 3.237-0.62 1.421-0.063 1.873-0.080 5.496-0.080zM16 9.333c-1.768 0-3.464 0.702-4.714 1.953s-1.953 2.946-1.953 4.714c0 1.768 0.702 3.464 1.953 4.714s2.946 1.953 4.714 1.953 3.464-0.702 4.714-1.953c1.25-1.25 1.953-2.946 1.953-4.714s-0.702-3.464-1.953-4.714c-1.25-1.25-2.946-1.953-4.714-1.953zM24.667 9c0-0.442-0.176-0.866-0.488-1.179s-0.736-0.488-1.178-0.488-0.866 0.176-1.179 0.488c-0.313 0.313-0.488 0.736-0.488 1.179s0.176 0.866 0.488 1.178c0.313 0.313 0.737 0.488 1.179 0.488s0.866-0.176 1.178-0.488c0.313-0.313 0.488-0.736 0.488-1.178zM16 12c1.061 0 2.078 0.421 2.828 1.172s1.172 1.768 1.172 2.828c0 1.061-0.421 2.078-1.172 2.828s-1.768 1.172-2.828 1.172c-1.061 0-2.078-0.421-2.828-1.172s-1.172-1.768-1.172-2.828c0-1.061 0.421-2.078 1.172-2.828s1.768-1.172 2.828-1.172z"></path>
</symbol>
<symbol id="icon-twitter" viewBox="0 0 37 32">
<path d="M36.733 4.722c-1.357 0.6-2.797 0.995-4.27 1.17 1.553-0.929 2.716-2.391 3.271-4.114-1.458 0.868-3.056 1.476-4.722 1.804-1.119-1.197-2.602-1.991-4.219-2.259s-3.276 0.007-4.721 0.78-2.594 2.002-3.268 3.496c-0.674 1.494-0.836 3.168-0.461 4.763-2.956-0.148-5.848-0.916-8.488-2.255s-4.969-3.217-6.836-5.514c-0.661 1.135-1.008 2.425-1.006 3.739 0 2.578 1.312 4.855 3.307 6.188-1.18-0.037-2.335-0.356-3.367-0.93v0.092c0 1.717 0.594 3.381 1.682 4.709s2.6 2.241 4.283 2.581c-1.096 0.297-2.245 0.341-3.36 0.128 0.474 1.478 1.399 2.77 2.645 3.696s2.749 1.439 4.301 1.468c-1.542 1.211-3.308 2.107-5.197 2.635s-3.863 0.679-5.81 0.444c3.399 2.186 7.355 3.346 11.396 3.342 13.676 0 21.156-11.33 21.156-21.155 0-0.32-0.009-0.644-0.023-0.96 1.456-1.052 2.712-2.356 3.71-3.849l-0.002-0.002z"></path>
</symbol>
<symbol id="icon-facebook" viewBox="0 0 32 32">
<path d="M18.667 18h3.333l1.333-5.333h-4.667v-2.667c0-1.373 0-2.667 2.667-2.667h2v-4.48c-0.435-0.057-2.076-0.187-3.809-0.187-3.62 0-6.191 2.209-6.191 6.267v3.733h-4v5.333h4v11.333h5.333v-11.333z"></path>
</symbol>
<symbol id="icon-clock" viewBox="0 0 32 32">
<path d="M16 31.238c-8.416 0-15.238-6.822-15.238-15.238s6.822-15.238 15.238-15.238 15.238 6.822 15.238 15.238c0 8.416-6.822 15.238-15.238 15.238zM16 28.19c3.233 0 6.334-1.285 8.62-3.57s3.57-5.387 3.57-8.62-1.284-6.334-3.57-8.62c-2.286-2.286-5.387-3.571-8.62-3.571s-6.334 1.284-8.62 3.571c-2.286 2.286-3.571 5.387-3.571 8.62s1.284 6.334 3.571 8.62c2.286 2.286 5.387 3.57 8.62 3.57zM17.524 16h6.095v3.048h-9.143v-10.667h3.048v7.619z"></path>
</symbol>
<symbol id="icon-sun" viewBox="0 0 32 32">
<path d="M8.111 17.334c-0.193-1.147-0.133-2.322 0.175-3.443s0.856-2.162 1.607-3.050c0.751-0.888 1.686-1.601 2.741-2.090s2.204-0.743 3.366-0.743c1.163 0 2.312 0.253 3.366 0.743s1.99 1.203 2.741 2.090 1.299 1.929 1.607 3.050c0.308 1.121 0.367 2.296 0.175 3.443h-15.779zM2.667 20h13.333v2.667h-13.333v-2.667zM18.667 20h10.667v2.667h-10.667v-2.667zM21.333 25.333h5.333v2.667h-5.333v-2.667zM5.333 25.333h13.333v2.667h-13.333v-2.667zM14.667 1.333h2.667v4h-2.667v-4zM4.687 6.572l1.885-1.885 2.828 2.828-1.885 1.885-2.828-2.828zM25.427 4.687l1.885 1.885-2.828 2.828-1.885-1.885 2.828-2.828zM30.667 14.667v2.667h-4v-2.667h4zM5.333 14.667v2.667h-4v-2.667h4z"></path>
</symbol>
</defs>
</svg>
